<svg xmlns="http://www.w3.org/2000/svg" xmlns:xlink="http://www.w3.org/1999/xlink" width="500" zoomAndPan="magnify" viewBox="0 0 375 374.999991" height="500" preserveAspectRatio="xMidYMid meet" version="1.0"><defs><g/><clipPath id="4c69bc26a7"><path d="M 116 155 L 138 155 L 138 235.765625 L 116 235.765625 Z M 116 155 " clip-rule="nonzero"/></clipPath><clipPath id="bfd8a309e5"><path d="M 143 124 L 166 124 L 166 235.765625 L 143 235.765625 Z M 143 124 " clip-rule="nonzero"/></clipPath><clipPath id="3c967691c9"><path d="M 176 119 L 231 119 L 231 235.765625 L 176 235.765625 Z M 176 119 " clip-rule="nonzero"/></clipPath><clipPath id="58eb8bef14"><path d="M 230 82 L 286.652344 82 L 286.652344 235.765625 L 230 235.765625 Z M 230 82 " clip-rule="nonzero"/></clipPath><clipPath id="bbbe49dae3"><path d="M 88.386719 186 L 111 186 L 111 235.765625 L 88.386719 235.765625 Z M 88.386719 186 " clip-rule="nonzero"/></clipPath><clipPath id="7e4e5a3d6b"><path d="M 88.386719 37.5 L 268 37.5 L 268 181 L 88.386719 181 Z M 88.386719 37.5 " clip-rule="nonzero"/></clipPath></defs><rect x="-37.5" width="450" fill="#ffffff" y="-37.499999" height="449.999989" fill-opacity="1"/><rect x="-37.5" width="450" fill="#ffffff" y="-37.499999" height="449.999989" fill-opacity="1"/><rect x="-37.5" width="450" fill="#000000" y="-37.499999" height="449.999989" fill-opacity="1"/><g clip-path="url(#4c69bc26a7)"><path fill="#a4b853" d="M 132.222656 155.21875 L 121.84375 155.21875 C 118.746094 155.21875 116.113281 157.855469 116.113281 160.953125 L 116.113281 230.035156 C 116.113281 233.132812 118.589844 235.765625 121.84375 235.765625 L 132.222656 235.765625 C 135.320312 235.765625 137.953125 233.132812 137.953125 230.035156 L 137.953125 160.953125 C 137.953125 157.855469 135.472656 155.21875 132.222656 155.21875 Z M 132.222656 155.21875 " fill-opacity="1" fill-rule="nonzero"/></g><g clip-path="url(#bfd8a309e5)"><path fill="#a4b853" d="M 160.101562 124.242188 L 149.722656 124.242188 C 146.625 124.242188 143.992188 126.875 143.992188 129.972656 L 143.992188 230.035156 C 143.992188 233.132812 146.472656 235.765625 149.722656 235.765625 L 160.101562 235.765625 C 163.199219 235.765625 165.832031 233.132812 165.832031 230.035156 L 165.832031 129.972656 C 165.832031 126.875 163.355469 124.242188 160.101562 124.242188 Z M 160.101562 124.242188 " fill-opacity="1" fill-rule="nonzero"/></g><g clip-path="url(#3c967691c9)"><path fill="#a4b853" d="M 221.59375 192.394531 L 220.046875 192.394531 L 220.046875 186.199219 C 223.453125 186.199219 226.242188 183.410156 226.242188 180.003906 L 226.242188 173.808594 C 226.242188 170.398438 223.453125 167.613281 220.046875 167.613281 L 219.425781 167.613281 C 226.398438 162.808594 230.890625 154.910156 230.890625 145.925781 C 230.890625 131.367188 219.117188 119.59375 204.558594 119.59375 C 189.996094 119.59375 178.226562 131.367188 178.226562 145.925781 C 178.226562 154.910156 182.714844 162.808594 189.6875 167.613281 L 189.066406 167.613281 C 185.660156 167.613281 182.871094 170.398438 182.871094 173.808594 L 182.871094 180.003906 C 179.464844 180.003906 176.675781 182.792969 176.675781 186.199219 L 176.675781 192.394531 C 176.675781 195.804688 179.464844 198.589844 182.871094 198.589844 L 184.421875 198.589844 L 184.421875 204.785156 L 182.871094 204.785156 C 179.464844 204.785156 176.675781 207.574219 176.675781 210.984375 L 176.675781 217.179688 C 176.675781 220.121094 178.6875 222.445312 181.324219 223.21875 C 181.324219 223.21875 181.324219 223.375 181.324219 223.375 L 181.324219 229.570312 C 181.324219 232.976562 184.109375 235.765625 187.519531 235.765625 L 218.496094 235.765625 C 221.90625 235.765625 224.695312 232.976562 224.695312 229.570312 L 224.695312 223.375 C 224.695312 220.429688 222.679688 218.109375 220.046875 217.332031 C 220.046875 217.179688 220.046875 217.179688 220.046875 217.179688 L 220.046875 210.984375 L 221.59375 210.984375 C 225.003906 210.984375 227.792969 208.195312 227.792969 204.785156 L 227.792969 198.589844 C 227.792969 195.183594 225.003906 192.394531 221.59375 192.394531 Z M 196.503906 151.65625 C 197.433594 151.65625 197.894531 152.121094 198.207031 152.585938 C 199.910156 154.292969 201.921875 155.53125 204.710938 155.53125 C 208.273438 155.53125 209.976562 154.292969 209.976562 151.96875 C 209.976562 146.238281 195.574219 148.871094 195.574219 139.421875 C 195.574219 135.859375 197.742188 132.914062 202.851562 132.296875 L 202.851562 129.972656 C 202.851562 128.886719 203.628906 128.113281 204.710938 128.113281 C 205.796875 128.113281 206.570312 128.886719 206.570312 129.972656 L 206.570312 132.296875 C 209.667969 132.761719 212.300781 134 213.695312 135.859375 C 213.851562 136.167969 214.160156 136.632812 214.160156 137.097656 C 214.160156 138.183594 213.230469 139.113281 211.992188 139.113281 C 211.371094 139.113281 210.90625 138.800781 210.289062 138.183594 C 209.050781 136.941406 207.035156 136.167969 204.867188 136.167969 C 201.613281 136.167969 200.375 137.71875 200.375 139.265625 C 200.375 144.378906 214.78125 142.054688 214.78125 151.8125 C 214.78125 156.148438 211.992188 158.9375 206.726562 159.402344 L 206.726562 161.570312 C 206.726562 162.65625 205.949219 163.429688 204.867188 163.429688 C 203.9375 163.429688 203.007812 162.65625 203.007812 161.570312 L 203.007812 159.402344 C 199.136719 158.9375 196.191406 156.925781 194.796875 154.753906 C 194.644531 154.445312 194.488281 153.980469 194.488281 153.671875 C 194.488281 152.585938 195.417969 151.65625 196.503906 151.65625 Z M 189.066406 173.808594 L 220.046875 173.808594 L 220.046875 180.003906 L 189.066406 180.003906 Z M 182.871094 192.394531 L 182.871094 186.199219 L 213.851562 186.199219 L 213.851562 192.394531 Z M 182.871094 217.179688 L 182.871094 210.984375 L 213.851562 210.984375 L 213.851562 217.179688 Z M 218.496094 229.570312 L 187.519531 229.570312 L 187.519531 223.375 L 218.496094 223.375 Z M 221.59375 204.785156 L 190.617188 204.785156 L 190.617188 198.589844 L 221.59375 198.589844 Z M 221.59375 204.785156 " fill-opacity="1" fill-rule="nonzero"/></g><g clip-path="url(#58eb8bef14)"><path fill="#a4b853" d="M 282.003906 180.160156 C 282.003906 180.003906 282.003906 180.003906 282.003906 180.003906 L 282.003906 173.808594 C 282.003906 170.398438 279.214844 167.613281 275.808594 167.613281 L 275.808594 161.417969 C 279.214844 161.417969 282.003906 158.628906 282.003906 155.21875 L 282.003906 149.023438 C 282.003906 146.703125 280.765625 144.6875 278.90625 143.601562 C 278.90625 143.292969 278.90625 143.136719 278.90625 142.828125 L 278.90625 136.632812 C 278.90625 133.226562 276.117188 130.4375 272.710938 130.4375 L 272.089844 130.4375 C 279.0625 125.636719 283.554688 117.734375 283.554688 108.75 C 283.554688 94.191406 271.78125 82.417969 257.222656 82.417969 C 242.660156 82.417969 230.890625 94.191406 230.890625 108.75 C 230.890625 117.734375 235.382812 125.636719 242.351562 130.4375 L 241.730469 130.4375 C 238.324219 130.4375 235.535156 133.226562 235.535156 136.632812 L 235.535156 142.828125 C 235.535156 145.152344 236.773438 147.164062 238.632812 148.25 C 238.632812 148.558594 238.632812 148.871094 238.632812 149.023438 L 238.632812 155.21875 C 235.226562 155.21875 232.4375 158.007812 232.4375 161.417969 L 232.4375 167.613281 C 232.4375 171.019531 235.226562 173.808594 238.632812 173.808594 L 238.632812 180.003906 C 238.632812 182.945312 240.648438 185.269531 243.28125 186.042969 C 243.28125 186.042969 243.28125 186.199219 243.28125 186.199219 L 243.28125 192.394531 C 243.28125 192.394531 243.28125 192.550781 243.28125 192.550781 C 240.648438 193.167969 238.632812 195.648438 238.632812 198.589844 L 238.632812 204.785156 L 237.085938 204.785156 C 233.675781 204.785156 230.890625 207.574219 230.890625 210.984375 L 230.890625 217.179688 C 230.890625 220.585938 233.675781 223.375 237.085938 223.375 L 238.632812 223.375 L 238.632812 229.570312 C 238.632812 232.976562 241.421875 235.765625 244.828125 235.765625 L 275.808594 235.765625 C 279.214844 235.765625 282.003906 232.976562 282.003906 229.570312 L 282.003906 223.375 C 282.003906 219.96875 279.214844 217.179688 275.808594 217.179688 L 274.261719 217.179688 L 274.261719 210.984375 L 275.808594 210.984375 C 279.214844 210.984375 282.003906 208.195312 282.003906 204.785156 L 282.003906 198.589844 C 282.003906 198.589844 282.003906 198.4375 282.003906 198.4375 C 284.636719 197.816406 286.652344 195.339844 286.652344 192.394531 L 286.652344 186.199219 C 286.652344 183.257812 284.636719 180.933594 282.003906 180.160156 Z M 275.808594 149.023438 L 275.808594 155.21875 L 244.828125 155.21875 L 244.828125 149.023438 Z M 249.167969 114.484375 C 250.097656 114.484375 250.5625 114.949219 250.871094 115.414062 C 252.574219 117.117188 254.589844 118.355469 257.375 118.355469 C 260.9375 118.355469 262.644531 117.117188 262.644531 114.792969 C 262.644531 109.0625 248.238281 111.695312 248.238281 102.246094 C 248.238281 98.683594 250.40625 95.742188 255.515625 95.121094 L 255.515625 92.796875 C 255.515625 91.714844 256.292969 90.9375 257.375 90.9375 C 258.460938 90.9375 259.234375 91.714844 259.234375 92.796875 L 259.234375 95.121094 C 262.332031 95.585938 264.964844 96.824219 266.359375 98.683594 C 266.515625 98.992188 266.824219 99.457031 266.824219 99.921875 C 266.824219 101.007812 265.894531 101.9375 264.65625 101.9375 C 264.035156 101.9375 263.570312 101.625 262.953125 101.007812 C 261.714844 99.769531 259.699219 98.992188 257.53125 98.992188 C 254.277344 98.992188 253.039062 100.542969 253.039062 102.089844 C 253.039062 107.203125 267.445312 104.878906 267.445312 114.636719 C 267.445312 118.976562 264.65625 121.761719 259.390625 122.226562 L 259.390625 124.394531 C 259.390625 125.480469 258.617188 126.253906 257.53125 126.253906 C 256.601562 126.253906 255.671875 125.480469 255.671875 124.394531 L 255.671875 122.226562 C 251.800781 121.761719 248.855469 119.75 247.464844 117.582031 C 247.308594 117.269531 247.152344 116.804688 247.152344 116.496094 C 247.152344 115.414062 248.082031 114.484375 249.167969 114.484375 Z M 241.730469 136.632812 L 272.710938 136.632812 L 272.710938 142.828125 L 241.730469 142.828125 Z M 238.632812 167.613281 L 238.632812 161.417969 L 269.613281 161.417969 L 269.613281 167.613281 Z M 275.808594 173.808594 L 275.808594 180.003906 L 244.828125 180.003906 L 244.828125 173.808594 Z M 237.085938 217.179688 L 237.085938 210.984375 L 268.0625 210.984375 L 268.0625 217.179688 Z M 275.808594 223.375 L 275.808594 229.570312 L 244.828125 229.570312 L 244.828125 223.375 Z M 275.808594 204.785156 L 244.828125 204.785156 L 244.828125 198.589844 L 275.808594 198.589844 Z M 280.457031 192.394531 L 249.476562 192.394531 L 249.476562 186.199219 L 280.457031 186.199219 Z M 280.457031 192.394531 " fill-opacity="1" fill-rule="nonzero"/></g><g clip-path="url(#bbbe49dae3)"><path fill="#a4b853" d="M 104.339844 186.199219 L 94.117188 186.199219 C 91.019531 186.199219 88.386719 188.832031 88.386719 191.929688 L 88.386719 230.035156 C 88.386719 233.132812 90.863281 235.765625 94.117188 235.765625 L 104.496094 235.765625 C 107.59375 235.765625 110.226562 233.132812 110.226562 230.035156 L 110.226562 191.929688 C 110.070312 188.832031 107.59375 186.199219 104.339844 186.199219 Z M 104.339844 186.199219 " fill-opacity="1" fill-rule="nonzero"/></g><g clip-path="url(#7e4e5a3d6b)"><path fill="#a4b853" d="M 150.5 90.320312 C 161.1875 94.65625 172.648438 96.980469 184.421875 97.445312 L 184.421875 120.523438 C 186.28125 118.976562 188.449219 117.734375 190.617188 116.652344 L 190.617188 97.445312 C 202.386719 97.132812 213.851562 94.65625 224.539062 90.320312 C 225.3125 92.953125 225.933594 95.429688 226.550781 98.21875 C 227.636719 95.121094 229.183594 92.179688 231.042969 89.699219 C 230.890625 89.082031 230.734375 88.460938 230.578125 87.839844 C 231.820312 87.222656 233.058594 86.601562 234.296875 85.980469 C 237.703125 82.574219 241.730469 79.941406 246.378906 78.238281 C 249.011719 76.222656 251.644531 74.210938 254.125 71.886719 C 255.515625 73.28125 256.910156 74.828125 258.152344 76.378906 C 261.402344 76.378906 264.347656 77 267.289062 77.925781 C 249.167969 53.453125 220.203125 37.5 187.519531 37.5 C 132.839844 37.5 88.386719 81.953125 88.386719 136.632812 C 88.386719 152.121094 91.949219 166.835938 98.453125 180.003906 L 104.496094 180.003906 C 104.804688 180.003906 105.113281 180.003906 105.425781 180.003906 C 98.917969 167.921875 95.046875 154.292969 94.582031 139.730469 L 137.953125 139.730469 L 137.953125 133.535156 L 94.582031 133.535156 C 95.355469 109.527344 105.269531 87.839844 120.914062 71.730469 C 128.039062 78.238281 135.9375 83.503906 144.457031 87.6875 C 141.203125 99.148438 139.191406 112.160156 138.417969 126.253906 C 139.5 123.003906 141.980469 120.367188 145.230469 118.976562 C 146.316406 108.75 148.019531 99.148438 150.5 90.320312 Z M 249.476562 67.550781 C 243.125 73.28125 236.15625 77.925781 228.71875 81.644531 C 223.609375 66 216.328125 53.453125 207.65625 45.863281 C 223.609375 49.425781 237.859375 57.015625 249.476562 67.550781 Z M 190.617188 44.003906 C 203.78125 46.175781 215.554688 61.820312 222.835938 84.433594 C 212.765625 88.617188 201.769531 90.9375 190.617188 91.25 Z M 184.421875 44.003906 L 184.421875 91.25 C 173.269531 90.9375 162.425781 88.617188 152.203125 84.433594 C 159.480469 61.820312 171.253906 46.175781 184.421875 44.003906 Z M 125.558594 67.550781 C 137.175781 57.015625 151.582031 49.425781 167.382812 46.019531 C 158.707031 53.609375 151.429688 66.15625 146.472656 81.800781 C 138.882812 77.925781 131.757812 73.28125 125.558594 67.550781 Z M 125.558594 67.550781 " fill-opacity="1" fill-rule="nonzero"/></g><g fill="#a4b853" fill-opacity="1"><g transform="translate(124.977862, 262.389329)"><g><path d="M 10.574219 -15.285156 L 2.003906 -15.285156 C 1.855469 -15.285156 1.484375 -15.226562 1.484375 -14.632812 L 1.484375 -13.167969 C 1.484375 -12.59375 1.855469 -12.539062 2.003906 -12.539062 L 10.089844 -12.539062 C 10.554688 -12.539062 10.886719 -12.410156 11.074219 -12.128906 C 11.277344 -11.851562 11.371094 -11.40625 11.371094 -10.796875 C 11.371094 -10.183594 11.277344 -9.738281 11.074219 -9.460938 C 10.886719 -9.179688 10.554688 -9.050781 10.089844 -9.050781 L 2.003906 -9.050781 C 1.855469 -9.050781 1.484375 -8.996094 1.484375 -8.421875 L 1.484375 -0.628906 C 1.484375 -0.0546875 1.855469 0.0195312 2.003906 0.0195312 L 3.710938 0.0195312 C 3.859375 0.0195312 4.230469 -0.0546875 4.230469 -0.628906 L 4.230469 -6.304688 L 10.574219 -6.324219 C 11.832031 -6.324219 12.742188 -6.714844 13.300781 -7.492188 C 13.855469 -8.273438 14.117188 -9.386719 14.117188 -10.851562 L 14.117188 -10.738281 C 14.117188 -12.222656 13.855469 -13.335938 13.300781 -14.097656 C 12.742188 -14.894531 11.832031 -15.285156 10.574219 -15.285156 Z M 10.574219 -15.285156 "/></g></g></g><g fill="#a4b853" fill-opacity="1"><g transform="translate(143.265387, 262.389329)"><g><path d="M 14.132812 -10.851562 C 14.132812 -10.832031 14.132812 -10.8125 14.132812 -10.796875 C 14.132812 -10.777344 14.132812 -10.757812 14.132812 -10.738281 Z M 14.484375 -0.796875 L 11.242188 -6.363281 C 12.148438 -6.472656 12.855469 -6.863281 13.316406 -7.492188 C 13.835938 -8.253906 14.117188 -9.347656 14.132812 -10.796875 C 14.117188 -12.242188 13.835938 -13.335938 13.316406 -14.097656 C 12.761719 -14.894531 11.832031 -15.285156 10.574219 -15.285156 L 2.023438 -15.285156 C 1.855469 -15.285156 1.484375 -15.226562 1.484375 -14.632812 L 1.484375 -13.167969 C 1.484375 -12.59375 1.855469 -12.539062 2.023438 -12.539062 L 10.089844 -12.539062 C 10.574219 -12.539062 10.886719 -12.410156 11.074219 -12.128906 C 11.277344 -11.851562 11.371094 -11.40625 11.371094 -10.796875 C 11.371094 -10.183594 11.277344 -9.738281 11.074219 -9.460938 C 10.886719 -9.179688 10.574219 -9.050781 10.089844 -9.050781 L 2.023438 -9.050781 C 1.855469 -9.050781 1.484375 -8.996094 1.484375 -8.421875 L 1.484375 -0.628906 C 1.484375 -0.0546875 1.855469 0.0195312 2.023438 0.0195312 L 3.710938 0.0195312 C 3.875 0.0195312 4.230469 -0.0546875 4.230469 -0.628906 L 4.230469 -6.304688 L 8.144531 -6.304688 L 11.5 -0.351562 C 11.574219 -0.242188 11.628906 -0.148438 11.703125 -0.09375 C 11.796875 -0.0195312 11.925781 0.0195312 12.09375 0.0195312 L 14.132812 0.0195312 C 14.355469 0.0195312 14.523438 -0.128906 14.558594 -0.351562 C 14.578125 -0.539062 14.558594 -0.6875 14.484375 -0.796875 Z M 14.484375 -0.796875 "/></g></g></g><g fill="#a4b853" fill-opacity="1"><g transform="translate(162.016579, 262.389329)"><g><path d="M 14.117188 -13.929688 C 13.746094 -14.394531 13.261719 -14.746094 12.667969 -14.96875 C 12.09375 -15.171875 11.386719 -15.285156 10.574219 -15.285156 L 6.046875 -15.285156 C 5.230469 -15.285156 4.542969 -15.171875 3.96875 -14.96875 C 3.375 -14.746094 2.894531 -14.394531 2.523438 -13.929688 C 2.171875 -13.464844 1.890625 -12.855469 1.726562 -12.113281 C 1.558594 -11.386719 1.484375 -10.515625 1.484375 -9.476562 L 1.484375 -5.804688 C 1.484375 -4.765625 1.558594 -3.875 1.726562 -3.152344 C 1.890625 -2.410156 2.171875 -1.800781 2.523438 -1.335938 C 2.894531 -0.851562 3.375 -0.5 3.96875 -0.296875 C 4.527344 -0.09375 5.230469 0.0195312 6.046875 0.0195312 L 10.574219 0.0195312 C 11.386719 0.0195312 12.09375 -0.09375 12.667969 -0.296875 C 13.261719 -0.5 13.746094 -0.851562 14.117188 -1.316406 C 14.484375 -1.800781 14.746094 -2.410156 14.914062 -3.152344 C 15.0625 -3.875 15.152344 -4.765625 15.152344 -5.804688 L 15.152344 -9.476562 C 15.152344 -10.5 15.0625 -11.386719 14.914062 -12.113281 C 14.746094 -12.855469 14.484375 -13.464844 14.117188 -13.929688 Z M 12.390625 -9.792969 L 12.390625 -5.472656 C 12.390625 -4.933594 12.371094 -4.46875 12.296875 -4.097656 C 12.242188 -3.765625 12.128906 -3.46875 11.980469 -3.28125 C 11.851562 -3.078125 11.667969 -2.949219 11.425781 -2.875 C 11.183594 -2.78125 10.871094 -2.746094 10.480469 -2.746094 L 6.140625 -2.746094 C 5.75 -2.746094 5.433594 -2.78125 5.195312 -2.875 C 4.953125 -2.949219 4.765625 -3.078125 4.636719 -3.28125 C 4.488281 -3.46875 4.394531 -3.765625 4.320312 -4.097656 C 4.265625 -4.46875 4.230469 -4.933594 4.230469 -5.472656 L 4.230469 -9.792969 C 4.230469 -10.332031 4.265625 -10.796875 4.320312 -11.167969 C 4.394531 -11.519531 4.488281 -11.796875 4.636719 -12 C 4.765625 -12.1875 4.953125 -12.316406 5.195312 -12.410156 C 5.433594 -12.484375 5.75 -12.539062 6.140625 -12.539062 L 10.480469 -12.539062 C 10.871094 -12.539062 11.183594 -12.484375 11.425781 -12.410156 C 11.667969 -12.316406 11.851562 -12.1875 11.980469 -12 C 12.128906 -11.796875 12.242188 -11.519531 12.296875 -11.167969 C 12.371094 -10.796875 12.390625 -10.332031 12.390625 -9.792969 Z M 12.390625 -9.792969 "/></g></g></g><g fill="#a4b853" fill-opacity="1"><g transform="translate(181.342724, 262.389329)"><g><path d="M 11.574219 -15.285156 L 5.15625 -15.285156 C 4.988281 -15.285156 4.617188 -15.226562 4.617188 -14.632812 L 4.617188 -13.167969 C 4.617188 -12.59375 4.988281 -12.539062 5.15625 -12.539062 C 5.15625 -12.539062 9.625 -12.519531 9.625 -12.5 L 9.625 -5.492188 C 9.625 -4.933594 9.609375 -4.46875 9.535156 -4.097656 C 9.476562 -3.746094 9.386719 -3.46875 9.238281 -3.28125 C 9.105469 -3.078125 8.921875 -2.949219 8.679688 -2.875 C 8.441406 -2.78125 8.125 -2.746094 7.734375 -2.746094 L 2.003906 -2.746094 C 1.855469 -2.746094 1.484375 -2.671875 1.484375 -2.097656 L 1.484375 -0.628906 C 1.484375 -0.0546875 1.855469 0.0195312 2.003906 0.0195312 L 7.808594 0.0195312 C 8.625 0.0195312 9.328125 -0.09375 9.90625 -0.296875 C 10.480469 -0.5 10.980469 -0.851562 11.351562 -1.316406 C 11.703125 -1.800781 11.980469 -2.410156 12.148438 -3.152344 C 12.296875 -3.875 12.390625 -4.765625 12.390625 -5.804688 L 12.390625 -14.632812 C 12.390625 -14.875 12.277344 -15.285156 11.574219 -15.285156 Z M 11.574219 -15.285156 "/></g></g></g><g fill="#a4b853" fill-opacity="1"><g transform="translate(197.905404, 262.389329)"><g><path d="M 12.632812 -3.320312 L 6.101562 -3.320312 C 5.710938 -3.320312 5.398438 -3.375 5.136719 -3.449219 C 4.898438 -3.542969 4.730469 -3.671875 4.582031 -3.859375 C 4.433594 -4.0625 4.320312 -4.339844 4.265625 -4.691406 C 4.246094 -4.785156 4.246094 -4.914062 4.230469 -5.007812 C 4.230469 -5.007812 4.246094 -6.34375 4.265625 -6.34375 L 12.558594 -6.34375 C 12.707031 -6.34375 13.078125 -6.417969 13.078125 -6.992188 L 13.078125 -8.457031 C 13.078125 -9.03125 12.707031 -9.089844 12.558594 -9.089844 L 2.984375 -9.070312 C 2.449219 -9.03125 1.984375 -8.753906 1.726562 -8.292969 C 1.632812 -8.144531 1.558594 -7.996094 1.519531 -7.828125 L 1.484375 -5.492188 L 1.484375 -5.398438 C 1.503906 -4.527344 1.59375 -3.785156 1.726562 -3.171875 C 1.890625 -2.429688 2.171875 -1.816406 2.523438 -1.355469 C 2.894531 -0.871094 3.375 -0.539062 3.96875 -0.332031 C 4.542969 -0.109375 5.230469 -0.0195312 6.046875 -0.0195312 L 12.632812 -0.0195312 C 12.796875 -0.0195312 13.167969 -0.0742188 13.167969 -0.648438 L 13.167969 -2.691406 C 13.167969 -3.265625 12.796875 -3.320312 12.632812 -3.320312 Z M 12.648438 -15.320312 L 1.984375 -15.320312 C 1.835938 -15.320312 1.484375 -15.246094 1.484375 -14.652344 L 1.484375 -13.207031 C 1.484375 -12.632812 1.835938 -12.574219 1.984375 -12.574219 L 12.648438 -12.558594 C 12.796875 -12.558594 13.167969 -12.632812 13.167969 -13.207031 L 13.167969 -14.671875 C 13.167969 -15.246094 12.796875 -15.320312 12.648438 -15.320312 Z M 12.648438 -15.320312 "/></g></g></g><g fill="#a4b853" fill-opacity="1"><g transform="translate(215.247047, 262.389329)"><g><path d="M 12.816406 -15.285156 L 6.066406 -15.285156 C 5.25 -15.285156 4.542969 -15.171875 3.96875 -14.96875 C 3.375 -14.746094 2.894531 -14.394531 2.542969 -13.929688 C 2.171875 -13.464844 1.890625 -12.855469 1.726562 -12.113281 C 1.558594 -11.386719 1.484375 -10.5 1.484375 -9.476562 L 1.484375 -5.804688 C 1.484375 -4.765625 1.558594 -3.875 1.726562 -3.132812 C 1.890625 -2.410156 2.171875 -1.800781 2.542969 -1.316406 C 2.910156 -0.851562 3.394531 -0.5 3.96875 -0.296875 C 4.542969 -0.09375 5.25 0.0195312 6.066406 0.0195312 L 12.816406 0.0195312 C 12.964844 0.0195312 13.335938 -0.0546875 13.335938 -0.628906 L 13.335938 -2.097656 C 13.335938 -2.671875 12.964844 -2.746094 12.816406 -2.746094 L 6.15625 -2.746094 C 5.769531 -2.746094 5.433594 -2.78125 5.195312 -2.875 C 4.953125 -2.949219 4.785156 -3.078125 4.636719 -3.28125 C 4.488281 -3.46875 4.394531 -3.746094 4.320312 -4.097656 C 4.265625 -4.46875 4.230469 -4.933594 4.230469 -5.492188 L 4.230469 -9.8125 C 4.230469 -10.367188 4.265625 -10.832031 4.320312 -11.183594 C 4.394531 -11.535156 4.488281 -11.796875 4.636719 -12 C 4.785156 -12.203125 4.953125 -12.335938 5.195312 -12.410156 C 5.433594 -12.5 5.769531 -12.539062 6.15625 -12.539062 L 12.816406 -12.539062 C 12.964844 -12.539062 13.335938 -12.613281 13.335938 -13.207031 L 13.335938 -14.632812 C 13.335938 -15.210938 12.964844 -15.285156 12.816406 -15.285156 Z M 12.816406 -15.285156 "/></g></g></g><g fill="#a4b853" fill-opacity="1"><g transform="translate(232.755612, 262.389329)"><g><path d="M 14.300781 -15.285156 L 2.023438 -15.285156 C 1.855469 -15.285156 1.484375 -15.226562 1.484375 -14.652344 L 1.484375 -13.207031 C 1.484375 -12.59375 1.855469 -12.539062 2.023438 -12.539062 L 6.789062 -12.539062 L 6.789062 -0.628906 C 6.789062 -0.0546875 7.160156 0 7.308594 0 L 9.015625 0 C 9.179688 0 9.535156 -0.0546875 9.535156 -0.628906 L 9.535156 -12.539062 L 14.300781 -12.539062 C 14.46875 -12.539062 14.839844 -12.59375 14.839844 -13.207031 L 14.839844 -14.652344 C 14.839844 -15.226562 14.46875 -15.285156 14.300781 -15.285156 Z M 14.300781 -15.285156 "/></g></g></g><g fill="#ff1616" fill-opacity="1"><g transform="translate(103.212971, 313.977674)"><g><path d="M 30.699219 -0.277344 L 28.058594 -6.769531 L 18.597656 -29.585938 L 18.921875 -30.328125 L 21.609375 -36.777344 L 20.171875 -37.007812 C 18.410156 -37.285156 16.648438 -36.777344 15.351562 -35.664062 C 14.050781 -36.777344 12.289062 -37.285156 10.527344 -37.007812 L 9.089844 -36.777344 L 11.777344 -30.328125 L 12.105469 -29.585938 L 2.644531 -6.722656 L 0 -0.277344 L 1.390625 -0.046875 C 4.171875 0.371094 6.863281 -1.113281 7.929688 -3.664062 L 8.253906 -4.5 L 15.351562 -21.65625 L 22.445312 -4.5 L 22.769531 -3.664062 C 23.835938 -1.113281 26.527344 0.371094 29.308594 -0.046875 Z M 30.699219 -0.277344 "/></g></g></g><g fill="#ff1616" fill-opacity="1"><g transform="translate(136.323605, 313.977674)"><g><path d="M 31.582031 -27.128906 C 31.582031 -32.601562 27.128906 -37.101562 21.609375 -37.101562 L 0 -37.101562 L 0 0 L 1.578125 -0.324219 C 4.265625 -0.972656 6.167969 -3.386719 6.167969 -6.121094 L 6.167969 -30.886719 L 20.960938 -30.886719 C 23.417969 -30.886719 25.414062 -28.890625 25.414062 -26.480469 L 25.414062 -24.441406 C 25.414062 -22.074219 23.464844 -20.125 21.101562 -20.125 L 7.882812 -20.125 L 8.207031 -18.734375 C 8.8125 -16.183594 10.945312 -14.285156 13.496094 -14.003906 L 22.816406 -2.273438 C 24.578125 -0.046875 27.6875 0.648438 30.28125 -0.554688 L 31.582031 -1.207031 L 21.425781 -13.957031 L 21.609375 -13.957031 C 27.128906 -13.957031 31.582031 -18.410156 31.582031 -23.929688 Z M 31.582031 -27.128906 "/></g></g></g><g fill="#ff1616" fill-opacity="1"><g transform="translate(170.686328, 313.977674)"><g><path d="M 31.628906 -37.101562 L 22.304688 -37.101562 C 17.019531 -37.101562 12.707031 -32.789062 12.707031 -27.453125 L 12.707031 0 L 14.144531 -0.324219 C 16.925781 -0.972656 18.875 -3.523438 18.875 -6.492188 L 18.875 -26.25 C 18.875 -28.800781 20.960938 -30.886719 23.511719 -30.886719 L 25.273438 -30.886719 C 28.148438 -30.886719 30.652344 -32.878906 31.304688 -35.664062 Z M 14.699219 -37.101562 L 6.308594 -37.101562 C 6.074219 -37.101562 5.84375 -37.054688 5.613281 -37.054688 C 3.015625 -36.730469 0.882812 -34.875 0.324219 -32.324219 L 0 -30.886719 L 8.394531 -30.886719 C 8.625 -30.886719 8.859375 -30.886719 9.089844 -30.933594 C 11.640625 -31.210938 13.773438 -33.113281 14.375 -35.664062 Z M 14.699219 -37.101562 "/></g></g></g><g fill="#ff1616" fill-opacity="1"><g transform="translate(205.049051, 313.977674)"><g><path d="M 22.816406 -21.609375 L 6.167969 -21.609375 L 6.167969 -37.101562 L 4.730469 -36.730469 C 1.949219 -36.125 0 -33.621094 0 -30.746094 L 0 0 L 1.390625 -0.324219 C 4.171875 -0.972656 6.167969 -3.433594 6.167969 -6.308594 L 6.167969 -15.441406 L 16.507812 -15.441406 C 19.386719 -15.441406 21.84375 -17.4375 22.492188 -20.21875 Z M 30.515625 -37.101562 L 29.078125 -36.730469 C 26.292969 -36.125 24.347656 -33.621094 24.347656 -30.746094 L 24.347656 0 L 25.738281 -0.324219 C 28.519531 -0.972656 30.515625 -3.433594 30.515625 -6.308594 Z M 30.515625 -37.101562 "/></g></g></g><g fill="#ff1616" fill-opacity="1"><g transform="translate(238.669793, 313.977674)"><g><path d="M 30.699219 -0.277344 L 28.058594 -6.769531 L 18.597656 -29.585938 L 18.921875 -30.328125 L 21.609375 -36.777344 L 20.171875 -37.007812 C 18.410156 -37.285156 16.648438 -36.777344 15.351562 -35.664062 C 14.050781 -36.777344 12.289062 -37.285156 10.527344 -37.007812 L 9.089844 -36.777344 L 11.777344 -30.328125 L 12.105469 -29.585938 L 2.644531 -6.722656 L 0 -0.277344 L 1.390625 -0.046875 C 4.171875 0.371094 6.863281 -1.113281 7.929688 -3.664062 L 8.253906 -4.5 L 15.351562 -21.65625 L 22.445312 -4.5 L 22.769531 -3.664062 C 23.835938 -1.113281 26.527344 0.371094 29.308594 -0.046875 Z M 30.699219 -0.277344 "/></g></g></g></svg>